<svg xmlns="http://www.w3.org/2000/svg" width="36" height="36" viewBox="0 0 36 36">
    <path fill="#FEB100" d="M18 0C8.06 0 0 8.06 0 18s8.06 18 18 18 18-8.06 18-18S27.94 0 18 0zm8.829 10.721l-2.614 4.19-1.744 2.794c.006.1.029.194.029.295 0 2.486-2.014 4.5-4.5 4.5-.101 0-.196-.023-.295-.03l-2.796 1.745-4.188 2.614c-.182.115-.389.171-.596.171-.29 0-.578-.113-.796-.328-.372-.372-.437-.948-.158-1.391l2.615-4.19 1.743-2.794c-.006-.101-.029-.196-.029-.297 0-2.486 2.014-4.5 4.5-4.5.101 0 .196.023.295.03l2.796-1.744L25.28 9.17c.436-.277 1.019-.211 1.39.16.374.369.439.945.16 1.39zM15.75 18c0 .804.429 1.547 1.125 1.949.696.401 1.554.401 2.25 0 .696-.402 1.125-1.145 1.125-1.949 0-1.243-1.007-2.25-2.25-2.25s-2.25 1.007-2.25 2.25z"/>
</svg>
