<svg xmlns="http://www.w3.org/2000/svg" width="36" height="36" viewBox="0 0 36 36">
    <path fill="#49CE88" d="M18 0C8.057 0 0 8.057 0 18s8.057 18 18 18 18-8.057 18-18S27.943 0 18 0zm6.23 13.154c1.152 0 2.078.926 2.078 2.077 0 1.15-.926 2.077-2.077 2.077-1.151 0-2.077-.926-2.077-2.077 0-1.151.926-2.077 2.077-2.077zm-12.46 0c1.15 0 2.076.926 2.076 2.077 0 1.15-.926 2.077-2.077 2.077-1.15 0-2.077-.926-2.077-2.077 0-1.151.926-2.077 2.077-2.077zM18 27.779c-3.868 0-7.122-2.588-8.152-6.118-.13-.442.2-.892.666-.892h14.963c.459 0 .796.442.666.892-1.02 3.53-4.275 6.118-8.143 6.118z"/>
</svg>
