<svg xmlns="http://www.w3.org/2000/svg" width="159" height="40" viewBox="0 0 159 40">
    <g fill="none">
        <path fill="#000" d="M50 31.15l1.934-4.472c2.119 1.543 4.874 2.354 7.628 2.354 2.013 0 3.311-.785 3.311-1.961-.053-3.27-12.184-.733-12.29-8.97-.053-4.183 3.735-7.426 9.059-7.426 3.178 0 6.357.785 8.609 2.537l-1.802 4.55c-2.066-1.308-4.635-2.223-7.072-2.223-1.669 0-2.755.784-2.755 1.778.053 3.242 12.29 1.464 12.423 9.335 0 4.289-3.682 7.27-8.926 7.27-3.868.052-7.417-.863-10.119-2.772m76.949-6.067c-1.007 1.752-2.86 2.824-4.874 2.824-3.1 0-5.615-2.484-5.615-5.543 0-3.06 2.516-5.544 5.615-5.544 2.013 0 3.894 1.072 4.874 2.824l5.377-2.955c-2.013-3.556-5.854-5.962-10.25-5.962-6.49 0-11.762 5.204-11.762 11.637 0 6.432 5.271 11.636 11.761 11.636 4.397 0 8.238-2.406 10.251-5.962l-5.377-2.955zm-54.407 8.42h6.728V1.026h-6.728v32.477zm63.175-32.477v32.477h6.728v-9.727l7.973 9.727H159l-10.119-11.558 9.377-10.8h-8.211l-7.602 8.97V1h-6.728v.026zm-35.76 10.146v2.641c-1.112-1.83-3.814-3.086-6.675-3.086-5.88 0-10.542 5.152-10.542 11.61C82.74 28.798 87.375 34 93.282 34c2.86 0 5.563-1.281 6.675-3.086v2.641h6.728V11.198h-6.728v-.026zm0 13.937c-.953 1.595-2.993 2.772-5.244 2.772-3.1 0-5.616-2.484-5.616-5.543 0-3.06 2.516-5.544 5.616-5.544 2.251 0 4.29 1.229 5.244 2.876v5.44z"/>
        <path fill="#1B1B25" d="M14.115 0c-2.124 0-3.859 1.735-3.859 3.859 0 2.124 1.735 3.859 3.86 3.859h3.858V3.859c0-2.124-1.71-3.859-3.859-3.859m0 10.282H3.86C1.735 10.282 0 12.017 0 14.141 0 16.265 1.735 18 3.859 18h10.282C16.265 18 18 16.265 18 14.141c-.026-2.124-1.735-3.859-3.885-3.859M39 14.146c0-2.12-1.735-3.853-3.859-3.853-2.124 0-3.859 1.733-3.859 3.853V18h3.859c2.124.026 3.859-1.707 3.859-3.854m-10.282 0V3.853c0-2.12-1.735-3.853-3.859-3.853C22.735 0 21 1.733 21 3.853v10.293C21 16.267 22.735 18 24.859 18c2.15.026 3.859-1.707 3.859-3.854M24.859 40c2.124 0 3.859-1.733 3.859-3.853 0-2.121-1.735-3.854-3.859-3.854H21v3.854C21 38.267 22.735 40 24.859 40m0-10.293h10.282c2.124 0 3.859-1.733 3.859-3.854C39 23.733 37.265 22 35.141 22H24.859C22.735 22 21 23.733 21 25.853c0 2.121 1.735 3.854 3.859 3.854M0 25.853c0 2.121 1.735 3.854 3.859 3.854 2.124 0 3.859-1.733 3.859-3.854V22H3.859C1.709 22 0 23.733 0 25.853m10.282 0v10.294c0 2.12 1.735 3.853 3.859 3.853C16.265 40 18 38.267 18 36.147V25.853C18 23.733 16.265 22 14.141 22c-2.15 0-3.859 1.733-3.859 3.853"/>
    </g>
</svg>
