<svg xmlns="http://www.w3.org/2000/svg" width="223" height="40" viewBox="0 0 223 40">
    <g fill="#656176" opacity="1">
        <path d="M207.87 19.334c2.878-.677 5.904.49 7.639 2.934l-13.212 3.047c.48-2.859 2.584-5.304 5.573-5.98zm7.712 11.21c-1.033 1.542-2.62 2.633-4.428 3.046-2.99.678-6.015-.564-7.676-2.971l13.248-3.047 2.14-.489 4.134-.94c-.037-.903-.148-1.806-.332-2.671-1.66-7.26-8.93-11.811-16.2-10.119-7.27 1.693-11.81 8.915-10.112 16.175 1.66 7.26 8.93 11.811 16.2 10.119 4.281-.978 7.602-3.912 9.3-7.636l-6.274-1.467zM184.036 39L184.036 20.221 180 20.221 180 13.803 184.036 13.803 184.036 5 190.873 5 190.873 13.803 196 13.803 196 20.184 190.873 20.184 190.873 38.963 184.036 38.963zM170.842 39h6.351V13.874h-6.35V39zM170 5.06c0-2.341 1.754-4.06 4.035-4.06C176.315 1 178 2.756 178 5.06c0 2.34-1.72 4.132-3.965 4.132-2.28 0-4.035-1.792-4.035-4.132zM168 14.073c-3.39.182-5.36.691-7.401 2.147V14H154v25h6.599V26.737c0-3.858.948-6.041 7.401-6.26v-6.404zM130.635 26.89c.187 3.725 3.448 6.853 7.421 6.853 4.048 0 7.384-3.277 7.384-7.188 0-3.836-3.336-7.15-7.384-7.15-4.01 0-7.272 3.165-7.421 6.852v.633zM124 39.292V1.527L130.784 0v15.642c2.1-1.676 4.573-2.383 7.31-2.383 7.721 0 13.906 5.922 13.906 13.333C152 33.966 145.815 40 138.094 40c-2.7 0-5.21-.708-7.31-2.384v1.676H124zM110.036 39L110.036 19.83 106 19.83 106 13.477 110.036 13.477 110.036 4.56 116.873 3 116.873 13.477 122 13.477 122 19.83 116.873 19.83 116.873 39 110.036 39zM97.29 39V25.369c0-4.94-2.654-6.018-5.308-6.018-2.655 0-5.31 1.003-5.31 5.906V39H80V13.483h6.673v1.894C88.147 14.3 89.917 13 93.456 13 99.096 13 104 16.269 104 24.254v14.709h-6.71V39zM62.87 19.334c2.989-.677 5.978.565 7.639 2.934l-13.212 3.047c.443-2.859 2.584-5.304 5.573-5.98zm7.712 11.21c-1.033 1.542-2.62 2.633-4.428 3.046-2.915.678-5.941-.489-7.676-2.971l13.248-3.047 2.14-.489 4.134-.94c-.037-.903-.148-1.806-.332-2.671-1.698-7.26-8.93-11.811-16.2-10.119-7.27 1.693-11.81 8.915-10.112 16.175 1.66 7.26 8.93 11.811 16.2 10.119 4.281-.978 7.602-3.912 9.3-7.636 0-.038-6.274-1.467-6.274-1.467zM35.5 39L25 14 32.335 14 38.963 30.958 45.665 14 53 14 42.5 39zM11.87 19.363c2.989-.676 5.978.563 7.639 2.93L6.297 25.334c.443-2.892 2.584-5.296 5.573-5.972zm7.712 11.155c-1.033 1.54-2.62 2.63-4.428 3.042-2.99.676-6.015-.563-7.676-2.967l13.248-3.042 2.14-.489L27 26.123c-.037-.901-.148-1.802-.332-2.666-1.66-7.25-8.93-11.794-16.2-10.104-7.27 1.69-11.81 8.902-10.112 16.188 1.697 7.287 8.93 11.794 16.2 10.104 4.281-.976 7.602-3.906 9.3-7.625l-6.274-1.502z"/>
    </g>
</svg>
