<svg xmlns="http://www.w3.org/2000/svg" width="194" height="55" viewBox="0 0 194 55">
    <defs>
        <linearGradient id="prefix__a" x1="50%" x2="50%" y1="0%" y2="100%">
            <stop offset="0%" stop-color="#656176"/>
            <stop offset="100%" stop-color="#0079BF"/>
        </linearGradient>
    </defs>
    <g fill="none">
        <path fill="#656176" d="M156.481 41.219c-2.957 1.207-5.29 5.38-8.839 7.752-.22.147-.44.22-.587.22-.293 0-.66-.294-.66-1.617 0-4.56 1.467-6.765 2.714-10 4.328-11.25 11.736-20.883 18.338-31.398.513-.808.807-1.69.807-2.647 0-.808-.294-1.47-.66-2.279C167.3.588 165.98 0 164.513 0c-.807 0-1.54.074-2.494.074-3.447 0-4.181 5.073-4.988 6.397-5.501 9.338-11.81 20.882-15.037 29.044-.708 1.83-1.472 3.659-2.053 5.537-3.19.926-5.579 5.42-9.316 7.919-.22.147-.44.22-.587.22-.293 0-.66-.294-.66-1.617 0-4.56 1.467-6.765 2.714-10 4.328-11.25 11.736-20.883 18.338-31.398.513-.808.806-1.69.806-2.647 0-.808-.293-1.47-.66-2.279-.293-.662-1.613-1.25-3.08-1.25-.807 0-1.54.074-2.494.074-3.448 0-4.181 5.073-4.988 6.397-5.502 9.338-11.81 20.882-15.037 29.044-.257.663-.52 1.326-.78 1.992-.081.043-.163.09-.247.14-3.741 2.206-6.895 6.103-11.443 8.75-.88.515-3.594 2.427-5.795 2.427-.513 0-.953-.148-1.393-.368-.66-.294-1.32-1.691-1.32-2.132 0-.368.073-.442.806-.883 6.455-3.897 11.736-9.485 16.284-15.073 1.687-2.06 3.888-6.103 3.888-9.044 0-1.912-.66-4.118-2.934-4.927-1.614-.588-3.448-.882-4.915-.882-3.887 0-6.748 1.764-8.362 3.456-1.643 1.758-3.232 3.563-4.708 5.432-1.543-1.335-3.718-1.903-5.781-1.903-2.42 0-6.968 3.015-9.316 4.78-.366.294-.586.44-.733.44-.073 0-.147-.073-.147-.22 0-.074.147-.735.147-1.912 0-1.03-.22-2.353-1.174-3.97-.22-.368-1.54-1.177-3.154-1.177-1.98 0-3.814.956-3.814 1.985 0 .736.66 1.03.66 1.692 0 .367-.293 2.058-.733 3.676-1.247 4.706-2.788 9.338-4.401 13.97-.88 2.574-3.815 4.854-3.815 7.648 0 .882.587 2.059 1.394 2.94 1.32 1.472 2.127 1.986 3.3 1.986.514 0 1.101-.147 1.615-.588 1.1-.956 1.687-1.912 1.98-3.235 1.907-8.677 7.408-14.56 13.497-18.456 2.053-1.324 4.84-2.72 5.208-2.72.376 0 .964.173 1.556.343-1.701 2.782-3.08 5.717-3.977 8.847-.293 1.03-.44 1.986-.44 3.015 0 1.691.367 3.456.953 5.147.807 2.353 2.128 4.412 3.961 5.368 3.374 1.765 5.795 2.72 7.996 2.72 1.247 0 2.2-.22 3.227-.808 4.821-2.735 7.777-4.81 9.911-6.652.059 1.868.426 2.903 1.752 4.299 1.32 1.397 3.374 2.647 6.088 3.235.44.073.88.147 1.32.147 3.105 0 6.094-2.53 8.398-5.038.267.547.655 1.07 1.211 1.656 1.32 1.397 3.374 2.647 6.088 3.235.44.073.88.147 1.32.147 3.638 0 7.115-3.472 9.52-6.313.802 1.662 3.042 3.305 5.738 4.622.733.367 1.613.588 2.42.588 3.154 0 5.428-2.573 7.189-4.485 4.547-5 7.041-11.177 8.948-18.97.147-.59.367-.81.66-.81.734 0 1.688 0 2.715-.147 1.98-.294 3.52-.956 5.354-1.25 1.1-.22.954-.588 1.98-.956.734-.294 1.321-.588 1.321-1.323 0-1.25-2.274-2.574-5.721-2.574-2.714 0-4.328.22-5.428.22-1.687 0-2.128-.514-3.228-3.381 0 0 1.1 2.867 0 0-.22-.589-.44-.883-1.1-1.471-1.54-1.324-3.448-1.765-4.988-1.765-3.667 0-6.822 3.75-9.022 6.912-.514.735-1.247 1.324-1.76 2.132-3.022 4.544-5.915 9.667-6.272 15.19zm-93.78-25.043c1.835 0 2.862-.147 3.082-.147.22 0 .366.074.366.295 0 .147-.073.367-.586 1.47-4.475 9.632-7.556 19.412-10.27 30.22-.073.295-.293 1.398-.293 2.5 0 1.03.293 2.133 1.32 2.721 1.98 1.177 3.595 1.691 4.695 1.691 1.613 0 2.42-1.029 2.42-2.72 0-1.47.074-3.015.294-4.191 2.054-10.81 5.134-19.265 9.902-28.089 2.274-4.19 2.567-4.411 2.567-4.779 0-.147-.073-.368-.22-.588 2.934-.662 6.455-1.103 9.683-1.103.366 0 1.833.515 2.054.735.513.515 1.026 1.03 1.907 1.03.733 0 1.98-.515 2.42-.81 1.027-.735 1.54-1.543 1.54-2.867 0-1.25-4.62-4.338-7.848-4.338-3.96 0-7.555.515-10.93 1.176-1.466.294-6.748 1.103-10.562 1.103-3.667 0-3.447-.514-4.988-.514-.88 0-1.32.44-1.687.808-.366.368-.587 1.839-.587 3.162 0 .662 0 1.177.367 1.618 1.1 1.323 3.228 1.617 5.355 1.617 0 0-2.127 0 0 0zm54.354 5.956c0 .662-.22 1.103-1.1 2.5-.88 1.397-.514 1.397-1.614 2.868-2.127 2.868-4.768 5.735-8.215 8.897-.954.882-1.1.882-1.247.882-.074 0-.22-.073-.22-.22 0-.22.073-.515.806-2.059 2.274-4.78 5.062-7.941 8.142-11.03 1.687-1.69 2.714-2.279 3.081-2.279.22 0 .367.074.367.441 0 0 0-.367 0 0zm56.407 1.912c.073 0 .146.074.22.22.073.221.22.442.587.736.293.22.293 1.25.293 2.059 0 7.132-4.034 13.015-7.995 18.97-.88 1.324-1.394 1.545-1.834 1.545-.367 0-.954-.956-1.174-1.545-.293-.808-.366-1.764-.366-2.132 0-5.735 5.428-14.265 9.022-18.97.587-.81 1.027-.883 1.247-.883 0 0-.22 0 0 0z" opacity="1"/>
        <g transform="translate(0 8)">
            <rect width="46" height="46" fill="url(#prefix__a)" opacity="1" rx="23"/>
            <rect width="14.03" height="20.125" x="25.99" y="5.98" fill="#FFF" rx="7.015"/>
            <rect width="14.03" height="31.625" x="5.98" y="5.98" fill="#FFF" rx="7.015"/>
        </g>
    </g>
</svg>
