<svg xmlns="http://www.w3.org/2000/svg" width="207" height="57" viewBox="0 0 207 57">
    <g fill="#656176" opacity="1">
        <path d="M30.132 24c-1.603 0-2.868 1.336-2.868 3s1.293 3 2.868 3C31.735 30 33 28.664 33 27s-1.293-3-2.868-3zm-10.264 0C18.265 24 17 25.336 17 27s1.293 3 2.868 3c1.603 0 2.868-1.336 2.868-3 .028-1.664-1.265-3-2.868-3z"/>
        <path d="M44.076 0H5.848C2.625 0 0 2.644 0 5.893V44.41c0 3.248 2.625 5.893 5.848 5.893H38.2l-1.512-5.26 3.652 3.391 3.452 3.19L49.953 57V5.893C49.924 2.644 47.3 0 44.076 0zM33.064 37.224s-1.027-1.236-1.883-2.3c3.737-1.063 5.164-3.391 5.164-3.391-1.17.776-2.282 1.322-3.28 1.695-1.427.604-2.797.978-4.137 1.236-2.74.518-5.25.374-7.39-.028-1.625-.316-3.023-.748-4.193-1.236-.656-.259-1.37-.575-2.082-.978-.086-.057-.172-.086-.257-.143-.057-.03-.086-.058-.114-.058-.514-.287-.8-.488-.8-.488s1.37 2.27 4.993 3.363c-.856 1.092-1.911 2.357-1.911 2.357-6.305-.202-8.701-4.34-8.701-4.34 0-9.17 4.108-16.615 4.108-16.615 4.108-3.076 7.988-2.99 7.988-2.99l.285.346C15.72 15.12 13.38 17.39 13.38 17.39s.627-.345 1.683-.805c3.052-1.35 5.477-1.695 6.476-1.81.17-.03.314-.058.485-.058 1.74-.23 3.708-.287 5.762-.057 2.71.316 5.62 1.12 8.587 2.73 0 0-2.253-2.156-7.103-3.621l.4-.46s3.908-.087 7.987 2.989c0 0 4.108 7.445 4.108 16.614 0-.028-2.396 4.11-8.7 4.312zm43.078-24.921H66.67v10.721l6.305 5.72V18.34h3.366c2.14 0 3.195 1.035 3.195 2.702v7.962c0 1.667-.998 2.788-3.195 2.788h-9.7v6.066h9.472c5.078.028 9.842-2.53 9.842-8.394v-8.566c.029-5.979-4.735-8.594-9.813-8.594zm49.638 17.16v-8.796c0-3.162 5.649-3.88 7.36-.718l5.221-2.128c-2.054-4.541-5.79-5.863-8.9-5.863-5.078 0-10.1 2.96-10.1 8.71v8.795c0 5.806 5.022 8.71 9.985 8.71 3.196 0 7.018-1.581 9.13-5.72l-5.592-2.588c-1.37 3.536-7.104 2.674-7.104-.402zm-17.26-7.589c-1.967-.43-3.28-1.15-3.365-2.385.114-2.961 4.65-3.076 7.303-.23l4.193-3.248c-2.624-3.22-5.591-4.082-8.644-4.082-4.65 0-9.157 2.644-9.157 7.646 0 4.858 3.709 7.473 7.788 8.106 2.083.287 4.393 1.12 4.336 2.558-.17 2.73-5.762 2.587-8.301-.517l-4.051 3.823c2.368 3.075 5.591 4.627 8.615 4.627 4.65 0 9.814-2.702 10.014-7.646.285-6.237-4.223-7.818-8.73-8.652zM89.408 37.828h6.39V12.303h-6.39v25.525zm107.75-25.525h-9.47v10.721l6.304 5.72V18.34h3.366c2.14 0 3.196 1.035 3.196 2.702v7.962c0 1.667-.999 2.788-3.196 2.788h-9.7v6.066h9.5c5.079.028 9.843-2.53 9.843-8.394v-8.566c0-5.979-4.764-8.594-9.842-8.594zm-46.471-.345c-5.25 0-10.47 2.874-10.47 8.767v8.71c0 5.834 5.249 8.766 10.527 8.766 5.249 0 10.47-2.932 10.47-8.767v-8.71c0-5.863-5.278-8.766-10.527-8.766zm4.108 17.476c0 1.84-2.054 2.788-4.08 2.788-2.054 0-4.108-.89-4.108-2.788v-8.71c0-1.868 1.997-2.874 3.994-2.874 2.082 0 4.194.891 4.194 2.875v8.71zm29.355-8.71c-.143-5.978-4.194-8.393-9.414-8.393h-10.128v25.525h6.476V29.75h1.141l5.877 8.106h7.988l-6.904-8.767c3.053-.977 4.964-3.65 4.964-8.364zm-9.3 3.45h-3.766v-5.835h3.766c4.022 0 4.022 5.835 0 5.835z"/>
    </g>
</svg>
