<svg xmlns="http://www.w3.org/2000/svg" width="32" height="32" viewBox="0 0 32 32">
    <path fill="#FF4F4F" d="M16 0C7.164 0 0 7.164 0 16s7.164 16 16 16 16-7.164 16-16S24.836 0 16 0zm7.848 9.53l-2.324 3.724-1.55 2.484c.006.088.026.172.026.262 0 2.21-1.79 4-4 4-.09 0-.174-.02-.262-.026l-2.486 1.55-3.722 2.324C9.368 23.95 9.184 24 9 24c-.258 0-.514-.1-.708-.292-.33-.33-.388-.842-.14-1.236l2.324-3.724 1.55-2.484C12.02 16.174 12 16.09 12 16c0-2.21 1.79-4 4-4 .09 0 .174.02.262.026l2.486-1.55 3.722-2.324c.388-.246.906-.188 1.236.142.332.328.39.84.142 1.236zM14 16c0 .715.381 1.375 1 1.732s1.381.357 2 0 1-1.017 1-1.732c0-1.105-.895-2-2-2s-2 .895-2 2z"/>
</svg>
